<svg id="Capa_1" data-name="Capa 1" xmlns="http://www.w3.org/2000/svg" viewBox="0 0 18 60">
  <defs>
    <style>
      .cls-1 {
        fill: #fc241c;
      }

      .cls-2 {
        fill: #fff;
      }
    </style>
  </defs>
  <title>convenio</title>
  <rect class="cls-1" x="-21" y="20.4" width="60" height="18" transform="translate(-20.4 39) rotate(-90)"/>
  <g>
    <path class="cls-2" d="M9.7,47.5a3,3,0,0,1,2.2,1,3.6,3.6,0,0,1,.7,2.4,3,3,0,0,1-1.1,2.6,4.5,4.5,0,0,1-3,.9H8A5.1,5.1,0,0,1,5.8,54a3.3,3.3,0,0,1-1.4-1.2,3.9,3.9,0,0,1,.3-4.3,2.7,2.7,0,0,1,2.2-1v1.7c-.6.1-1,.2-1.2.5s-.4.6-.4,1.2a1.5,1.5,0,0,0,.6,1.3,3.7,3.7,0,0,0,2,.4h.6a3.9,3.9,0,0,0,2.1-.4,1.5,1.5,0,0,0,.6-1.3,1.6,1.6,0,0,0-.4-1.2,1.6,1.6,0,0,0-1.1-.5Z" transform="translate(0 0.6)"/>
    <path class="cls-2" d="M9.3,46.7a3.3,3.3,0,0,1-1.7-.4,2.2,2.2,0,0,1-1.1-1,2.9,2.9,0,0,1-.4-1.6,2.5,2.5,0,0,1,.8-2.1A3.4,3.4,0,0,1,9,40.7h.4a3.6,3.6,0,0,1,2.4.8,3.1,3.1,0,0,1,.8,2.2,2.9,2.9,0,0,1-.8,2.2,3.6,3.6,0,0,1-2.4.8ZM9.4,45a2.6,2.6,0,0,0,1.4-.3,1.3,1.3,0,0,0,0-2,2.8,2.8,0,0,0-1.5-.3,2.6,2.6,0,0,0-1.4.3,1.3,1.3,0,0,0,0,2A2.8,2.8,0,0,0,9.4,45Z" transform="translate(0 0.6)"/>
    <path class="cls-2" d="M6.2,38.1h.7a2.2,2.2,0,0,1-.8-1.8,1.8,1.8,0,0,1,.6-1.5,2.6,2.6,0,0,1,1.7-.5h4.1v1.7h-4a1.5,1.5,0,0,0-.8.2,1,1,0,0,0-.3.8A1.2,1.2,0,0,0,8.1,38h4.4v1.7H6.2Z" transform="translate(0 0.6)"/>
    <path class="cls-2" d="M10.5,30.5,6.2,29.4V27.6l6.3,2.1v1.7L6.2,33.5V31.7Z" transform="translate(0 0.6)"/>
    <path class="cls-2" d="M12.6,24a3.1,3.1,0,0,1-.8,2.3,3,3,0,0,1-2.3.9H9.3a4.7,4.7,0,0,1-1.7-.4,2.3,2.3,0,0,1-1.1-1.1,2.4,2.4,0,0,1-.4-1.5,2.3,2.3,0,0,1,.8-2,3.2,3.2,0,0,1,2.3-.8h.7v4a1.2,1.2,0,0,0,1-.5,1.2,1.2,0,0,0,.4-1,1.8,1.8,0,0,0-.7-1.5l.9-.9a2.3,2.3,0,0,1,.8,1.1A3.2,3.2,0,0,1,12.6,24Zm-5.2.2a.9.9,0,0,0,.4.8,1.3,1.3,0,0,0,1,.4V23.1H8.6a1.2,1.2,0,0,0-.9.3A1,1,0,0,0,7.4,24.2Z" transform="translate(0 0.6)"/>
    <path class="cls-2" d="M6.2,18.9h.7A2.2,2.2,0,0,1,6.1,17a1.8,1.8,0,0,1,.6-1.5A2.6,2.6,0,0,1,8.4,15h4.1v1.7h-4a1.5,1.5,0,0,0-.8.2,1.1,1.1,0,0,0-.3.8,1.2,1.2,0,0,0,.7,1.1h4.4v1.7H6.2Z" transform="translate(0 0.6)"/>
    <path class="cls-2" d="M4.5,13.7a.7.7,0,0,1-.6-.2,1.3,1.3,0,0,1,0-1.4l.6-.3a.9.9,0,0,1,.7.3,1.3,1.3,0,0,1,0,1.4Zm8-1.8v1.7H6.2V11.9Z" transform="translate(0 0.6)"/>
    <path class="cls-2" d="M9.3,10.8a3.3,3.3,0,0,1-1.7-.4,1.8,1.8,0,0,1-1.1-1,2.9,2.9,0,0,1-.4-1.6,2.8,2.8,0,0,1,.8-2.1A3.4,3.4,0,0,1,9,4.8h.4a3.6,3.6,0,0,1,2.4.8,3.3,3.3,0,0,1,.8,2.2,2.9,2.9,0,0,1-.8,2.2,3.6,3.6,0,0,1-2.4.8Zm.1-1.7a2.6,2.6,0,0,0,1.4-.3,1.4,1.4,0,0,0,.5-1,1.4,1.4,0,0,0-.5-1,2.8,2.8,0,0,0-1.5-.3,2.6,2.6,0,0,0-1.4.3,1.4,1.4,0,0,0-.5,1,1.4,1.4,0,0,0,.5,1A2.8,2.8,0,0,0,9.4,9.1Z" transform="translate(0 0.6)"/>
  </g>
</svg>
